<svg width="16" height="16" viewBox="0 0 16 16" fill="none" xmlns="http://www.w3.org/2000/svg">
<path d="M8 7.75C8.95703 7.75 9.75 8.54297 9.75 9.5C9.75 10.4844 8.95703 11.25 8 11.25C7.01562 11.25 6.25 10.4844 6.25 9.5C6.25 8.54297 7.01562 7.75 8 7.75ZM13.7148 4.30469C13.9609 4.55078 14.125 4.90625 14.125 5.23438V12.125C14.125 13.1094 13.332 13.875 12.375 13.875H3.625C2.64062 13.875 1.875 13.1094 1.875 12.125V3.375C1.875 2.41797 2.64062 1.625 3.625 1.625H10.5156C10.8438 1.625 11.1992 1.78906 11.418 2.00781L13.7148 4.30469ZM5.375 2.9375V5.125H9.3125V2.9375H5.375ZM12.8125 12.125V5.31641C12.8125 5.26172 12.7852 5.23438 12.7578 5.20703L10.625 3.04688V5.78125C10.625 6.16406 10.3242 6.4375 9.96875 6.4375H4.71875C4.33594 6.4375 4.0625 6.16406 4.0625 5.78125V2.9375H3.625C3.37891 2.9375 3.1875 3.15625 3.1875 3.375V12.125C3.1875 12.3711 3.37891 12.5625 3.625 12.5625H12.375C12.5938 12.5625 12.8125 12.3711 12.8125 12.125Z" fill="white"/>
</svg>
