<svg width="120" height="96" viewBox="0 0 120 96" fill="none" xmlns="http://www.w3.org/2000/svg">
<path d="M40.5 22.5C45.375 22.5 49.5 26.625 49.5 31.5C49.5 36.5625 45.375 40.5 40.5 40.5C35.4375 40.5 31.5 36.5625 31.5 31.5C31.5 26.625 35.4375 22.5 40.5 22.5ZM95.8125 6C102.562 6 107.812 11.4375 107.812 18V78C107.812 84.75 102.375 90 95.8125 90H23.8125C17.25 90 11.8125 84.75 11.8125 78V18C11.8125 11.4375 17.25 6 23.8125 6H95.8125ZM98.8125 76.875V18C98.8125 16.5 97.5 15 95.8125 15H23.8125C22.3125 15 20.8125 16.5 20.8125 18L21 78L35.0625 60.375C35.8125 59.625 36.75 59.0625 37.875 59.0625C39 59.0625 39.9375 59.625 40.6875 60.375L47.625 69L67.5 42C68.25 41.0625 69.1875 40.5 70.5 40.5C71.625 40.5 72.5625 41.0625 73.125 42L98.8125 76.875Z" fill="#3E3232" fill-opacity="0.25"/>
</svg>
