<svg xmlns="http://www.w3.org/2000/svg" xmlns:xlink="http://www.w3.org/1999/xlink" width="100" zoomAndPan="magnify" viewBox="0 0 75 37.5" height="50" preserveAspectRatio="xMidYMid meet" version="1.0"><defs><g/><clipPath id="316cf7e2dd"><path d="M 45.652344 28.277344 L 51 28.277344 L 51 34.199219 L 45.652344 34.199219 Z M 45.652344 28.277344 " clip-rule="nonzero"/></clipPath><clipPath id="b1785703e5"><path d="M 50 28.277344 L 56 28.277344 L 56 34.199219 L 50 34.199219 Z M 50 28.277344 " clip-rule="nonzero"/></clipPath><clipPath id="52df9aeb83"><path d="M 55 28.277344 L 61 28.277344 L 61 34.199219 L 55 34.199219 Z M 55 28.277344 " clip-rule="nonzero"/></clipPath><clipPath id="1f776e2bfe"><path d="M 60 28.277344 L 65 28.277344 L 65 34.199219 L 60 34.199219 Z M 60 28.277344 " clip-rule="nonzero"/></clipPath><clipPath id="1be6336f0c"><path d="M 64 28.277344 L 70 28.277344 L 70 34.199219 L 64 34.199219 Z M 64 28.277344 " clip-rule="nonzero"/></clipPath><clipPath id="1bf7b73dd7"><path d="M 69 28.277344 L 74.503906 28.277344 L 74.503906 34.199219 L 69 34.199219 Z M 69 28.277344 " clip-rule="nonzero"/></clipPath><clipPath id="0a050a9590"><path d="M 5.144531 3.738281 L 10 3.738281 L 10 9.660156 L 5.144531 9.660156 Z M 5.144531 3.738281 " clip-rule="nonzero"/></clipPath><clipPath id="10bbfe9b9e"><path d="M 9 3.738281 L 15 3.738281 L 15 9.660156 L 9 9.660156 Z M 9 3.738281 " clip-rule="nonzero"/></clipPath><clipPath id="436b2bd39d"><path d="M 14 3.738281 L 20 3.738281 L 20 9.660156 L 14 9.660156 Z M 14 3.738281 " clip-rule="nonzero"/></clipPath><clipPath id="a88559f6b0"><path d="M 19 3.738281 L 24 3.738281 L 24 9.660156 L 19 9.660156 Z M 19 3.738281 " clip-rule="nonzero"/></clipPath><clipPath id="c75c2578c6"><path d="M 23 3.738281 L 29 3.738281 L 29 9.660156 L 23 9.660156 Z M 23 3.738281 " clip-rule="nonzero"/></clipPath><clipPath id="e2e24f9b9d"><path d="M 28 3.738281 L 33.269531 3.738281 L 33.269531 9.660156 L 28 9.660156 Z M 28 3.738281 " clip-rule="nonzero"/></clipPath></defs><g fill="#fc4308" fill-opacity="1"><g transform="translate(12.322452, 23.612505)"><g><path d="M 0.9375 -12.9375 L 4.953125 -12.9375 C 6.171875 -12.9375 7.140625 -12.675781 7.859375 -12.15625 C 8.578125 -11.644531 8.9375 -10.804688 8.9375 -9.640625 C 8.9375 -8.347656 8.398438 -7.425781 7.328125 -6.875 C 9.171875 -6.550781 10.09375 -5.460938 10.09375 -3.609375 C 10.09375 -2.523438 9.710938 -1.648438 8.953125 -0.984375 C 8.203125 -0.328125 7.164062 0 5.84375 0 L 0.9375 0 Z M 3.890625 -7.875 L 4.125 -7.875 C 4.78125 -7.875 5.269531 -7.988281 5.59375 -8.21875 C 5.925781 -8.445312 6.09375 -8.820312 6.09375 -9.34375 C 6.09375 -10.226562 5.4375 -10.671875 4.125 -10.671875 L 3.890625 -10.671875 Z M 3.890625 -2.28125 L 4.8125 -2.28125 C 6.257812 -2.28125 6.984375 -2.757812 6.984375 -3.71875 C 6.984375 -4.289062 6.800781 -4.703125 6.4375 -4.953125 C 6.082031 -5.203125 5.539062 -5.328125 4.8125 -5.328125 L 3.890625 -5.328125 Z M 3.890625 -2.28125 "/></g></g></g><g fill="#fc4308" fill-opacity="1"><g transform="translate(22.766862, 23.612505)"><g><path d="M 0.9375 0 L 0.9375 -13.484375 L 3.71875 -13.484375 L 3.71875 0 Z M 0.9375 0 "/></g></g></g><g fill="#fc4308" fill-opacity="1"><g transform="translate(27.424505, 23.612505)"><g><path d="M 1.703125 -0.953125 C 0.804688 -1.753906 0.359375 -2.773438 0.359375 -4.015625 C 0.359375 -5.253906 0.820312 -6.273438 1.75 -7.078125 C 2.6875 -7.878906 3.835938 -8.28125 5.203125 -8.28125 C 6.554688 -8.28125 7.695312 -7.875 8.625 -7.0625 C 9.550781 -6.257812 10.015625 -5.242188 10.015625 -4.015625 C 10.015625 -2.785156 9.5625 -1.769531 8.65625 -0.96875 C 7.75 -0.164062 6.597656 0.234375 5.203125 0.234375 C 3.765625 0.234375 2.597656 -0.160156 1.703125 -0.953125 Z M 3.84375 -5.375 C 3.488281 -5.019531 3.3125 -4.566406 3.3125 -4.015625 C 3.3125 -3.460938 3.484375 -3.007812 3.828125 -2.65625 C 4.171875 -2.3125 4.625 -2.140625 5.1875 -2.140625 C 5.738281 -2.140625 6.1875 -2.316406 6.53125 -2.671875 C 6.882812 -3.023438 7.0625 -3.472656 7.0625 -4.015625 C 7.0625 -4.566406 6.878906 -5.019531 6.515625 -5.375 C 6.160156 -5.738281 5.71875 -5.921875 5.1875 -5.921875 C 4.65625 -5.921875 4.207031 -5.738281 3.84375 -5.375 Z M 3.84375 -5.375 "/></g></g></g><g fill="#fc4308" fill-opacity="1"><g transform="translate(37.790503, 23.612505)"><g><path d="M 0.578125 1.984375 L 2.859375 0.859375 C 3.273438 1.546875 4 1.890625 5.03125 1.890625 C 5.507812 1.890625 5.957031 1.734375 6.375 1.421875 C 6.789062 1.117188 7 0.648438 7 0.015625 L 7 -0.578125 C 6.507812 -0.0351562 5.628906 0.234375 4.359375 0.234375 C 3.203125 0.234375 2.242188 -0.175781 1.484375 -1 C 0.734375 -1.820312 0.359375 -2.828125 0.359375 -4.015625 C 0.359375 -5.203125 0.734375 -6.207031 1.484375 -7.03125 C 2.242188 -7.863281 3.203125 -8.28125 4.359375 -8.28125 C 5.398438 -8.28125 6.265625 -7.960938 6.953125 -7.328125 L 7 -7.328125 L 7 -8.046875 L 9.765625 -8.046875 L 9.765625 0.21875 C 9.765625 1.53125 9.332031 2.539062 8.46875 3.25 C 7.601562 3.957031 6.457031 4.3125 5.03125 4.3125 C 2.726562 4.3125 1.242188 3.535156 0.578125 1.984375 Z M 3.84375 -5.375 C 3.488281 -5.019531 3.3125 -4.566406 3.3125 -4.015625 C 3.3125 -3.460938 3.484375 -3.007812 3.828125 -2.65625 C 4.171875 -2.3125 4.625 -2.140625 5.1875 -2.140625 C 5.738281 -2.140625 6.1875 -2.316406 6.53125 -2.671875 C 6.882812 -3.023438 7.0625 -3.472656 7.0625 -4.015625 C 7.0625 -4.566406 6.878906 -5.019531 6.515625 -5.375 C 6.160156 -5.738281 5.71875 -5.921875 5.1875 -5.921875 C 4.65625 -5.921875 4.207031 -5.738281 3.84375 -5.375 Z M 3.84375 -5.375 "/></g></g></g><g fill="#fc4308" fill-opacity="1"><g transform="translate(48.501514, 23.612505)"><g><path d="M 2.734375 -3.359375 C 3.234375 -3.359375 3.65625 -3.179688 4 -2.828125 C 4.351562 -2.484375 4.53125 -2.054688 4.53125 -1.546875 C 4.53125 -1.054688 4.351562 -0.632812 4 -0.28125 C 3.65625 0.0625 3.234375 0.234375 2.734375 0.234375 C 2.242188 0.234375 1.820312 0.0625 1.46875 -0.28125 C 1.113281 -0.632812 0.9375 -1.054688 0.9375 -1.546875 C 0.9375 -2.054688 1.113281 -2.484375 1.46875 -2.828125 C 1.820312 -3.179688 2.242188 -3.359375 2.734375 -3.359375 Z M 2.734375 -3.359375 "/></g></g></g><g clip-path="url(#316cf7e2dd)"><path fill="#000000" d="M 48.128906 28.289062 L 45.664062 34.191406 L 48.097656 34.191406 L 50.566406 28.289062 Z M 48.128906 28.289062 " fill-opacity="1" fill-rule="nonzero"/></g><g clip-path="url(#b1785703e5)"><path fill="#000000" d="M 52.925781 28.289062 L 50.457031 34.191406 L 52.894531 34.191406 L 55.359375 28.289062 Z M 52.925781 28.289062 " fill-opacity="1" fill-rule="nonzero"/></g><g clip-path="url(#52df9aeb83)"><path fill="#000000" d="M 57.71875 28.289062 L 55.253906 34.191406 L 57.6875 34.191406 L 60.15625 28.289062 Z M 57.71875 28.289062 " fill-opacity="1" fill-rule="nonzero"/></g><g clip-path="url(#1f776e2bfe)"><path fill="#000000" d="M 62.515625 28.289062 L 60.046875 34.191406 L 62.484375 34.191406 L 64.949219 28.289062 Z M 62.515625 28.289062 " fill-opacity="1" fill-rule="nonzero"/></g><g clip-path="url(#1be6336f0c)"><path fill="#000000" d="M 67.308594 28.289062 L 64.839844 34.191406 L 67.277344 34.191406 L 69.746094 28.289062 Z M 67.308594 28.289062 " fill-opacity="1" fill-rule="nonzero"/></g><g clip-path="url(#1bf7b73dd7)"><path fill="#000000" d="M 72.105469 28.289062 L 69.636719 34.191406 L 72.074219 34.191406 L 74.539062 28.289062 Z M 72.105469 28.289062 " fill-opacity="1" fill-rule="nonzero"/></g><g clip-path="url(#0a050a9590)"><path fill="#000000" d="M 7.558594 3.746094 L 5.15625 9.652344 L 7.527344 9.652344 L 9.933594 3.746094 Z M 7.558594 3.746094 " fill-opacity="1" fill-rule="nonzero"/></g><g clip-path="url(#10bbfe9b9e)"><path fill="#000000" d="M 12.230469 3.746094 L 9.828125 9.652344 L 12.199219 9.652344 L 14.605469 3.746094 Z M 12.230469 3.746094 " fill-opacity="1" fill-rule="nonzero"/></g><g clip-path="url(#436b2bd39d)"><path fill="#000000" d="M 16.902344 3.746094 L 14.5 9.652344 L 16.871094 9.652344 L 19.277344 3.746094 Z M 16.902344 3.746094 " fill-opacity="1" fill-rule="nonzero"/></g><g clip-path="url(#a88559f6b0)"><path fill="#000000" d="M 21.574219 3.746094 L 19.171875 9.652344 L 21.542969 9.652344 L 23.949219 3.746094 Z M 21.574219 3.746094 " fill-opacity="1" fill-rule="nonzero"/></g><g clip-path="url(#c75c2578c6)"><path fill="#000000" d="M 26.246094 3.746094 L 23.84375 9.652344 L 26.214844 9.652344 L 28.621094 3.746094 Z M 26.246094 3.746094 " fill-opacity="1" fill-rule="nonzero"/></g><g clip-path="url(#e2e24f9b9d)"><path fill="#000000" d="M 30.917969 3.746094 L 28.515625 9.652344 L 30.886719 9.652344 L 33.292969 3.746094 Z M 30.917969 3.746094 " fill-opacity="1" fill-rule="nonzero"/></g><g fill="#fc4308" fill-opacity="1"><g transform="translate(54.830768, 25.608892)"><g><path d="M 2.03125 -2.71875 L 2.03125 0 L 0.5 0 L 0.5 -6.78125 L 2.03125 -6.78125 L 2.03125 -4.078125 L 4.21875 -4.078125 L 4.21875 -6.78125 L 5.765625 -6.78125 L 5.765625 0 L 4.21875 0 L 4.21875 -2.71875 Z M 2.03125 -2.71875 "/></g></g></g><g fill="#fc4308" fill-opacity="1"><g transform="translate(61.091399, 25.608892)"><g><path d="M 1.859375 -4.21875 L 1.859375 -2.203125 C 1.859375 -1.796875 1.921875 -1.503906 2.046875 -1.328125 C 2.179688 -1.148438 2.394531 -1.0625 2.6875 -1.0625 C 2.988281 -1.0625 3.203125 -1.148438 3.328125 -1.328125 C 3.460938 -1.503906 3.53125 -1.796875 3.53125 -2.203125 L 3.53125 -4.21875 L 4.984375 -4.21875 L 4.984375 -1.859375 C 4.984375 -1.160156 4.800781 -0.65625 4.4375 -0.34375 C 4.070312 -0.03125 3.488281 0.125 2.6875 0.125 C 1.894531 0.125 1.316406 -0.03125 0.953125 -0.34375 C 0.585938 -0.65625 0.40625 -1.160156 0.40625 -1.859375 L 0.40625 -4.21875 Z M 1.859375 -4.21875 "/></g></g></g><g fill="#fc4308" fill-opacity="1"><g transform="translate(66.48113, 25.608892)"><g><path d="M 4.828125 -3.6875 C 5.222656 -3.257812 5.421875 -2.734375 5.421875 -2.109375 C 5.421875 -1.484375 5.222656 -0.953125 4.828125 -0.515625 C 4.429688 -0.0859375 3.929688 0.125 3.328125 0.125 C 2.765625 0.125 2.304688 -0.078125 1.953125 -0.484375 L 1.9375 -0.484375 L 1.9375 0 L 0.5 0 L 0.5 -7.0625 L 1.953125 -7.0625 L 1.953125 -3.8125 C 2.304688 -4.164062 2.765625 -4.34375 3.328125 -4.34375 C 3.929688 -4.34375 4.429688 -4.125 4.828125 -3.6875 Z M 3.609375 -1.390625 C 3.785156 -1.578125 3.875 -1.816406 3.875 -2.109375 C 3.875 -2.398438 3.78125 -2.632812 3.59375 -2.8125 C 3.40625 -3 3.171875 -3.09375 2.890625 -3.09375 C 2.617188 -3.09375 2.390625 -3 2.203125 -2.8125 C 2.015625 -2.632812 1.921875 -2.398438 1.921875 -2.109375 C 1.921875 -1.816406 2.007812 -1.578125 2.1875 -1.390625 C 2.375 -1.210938 2.609375 -1.125 2.890625 -1.125 C 3.191406 -1.125 3.429688 -1.210938 3.609375 -1.390625 Z M 3.609375 -1.390625 "/></g></g></g></svg>