<svg xmlns="http://www.w3.org/2000/svg" xmlns:xlink="http://www.w3.org/1999/xlink" width="500" zoomAndPan="magnify" viewBox="0 0 375 374.999991" height="500" preserveAspectRatio="xMidYMid meet" version="1.0"><defs><g/><clipPath id="254b1b36f7"><path d="M 196.558594 220.105469 L 215 220.105469 L 215 241.105469 L 196.558594 241.105469 Z M 196.558594 220.105469 " clip-rule="nonzero"/></clipPath><clipPath id="3ea6e83627"><path d="M 214 220.105469 L 232 220.105469 L 232 241.105469 L 214 241.105469 Z M 214 220.105469 " clip-rule="nonzero"/></clipPath><clipPath id="7272dafd06"><path d="M 231 220.105469 L 250 220.105469 L 250 241.105469 L 231 241.105469 Z M 231 220.105469 " clip-rule="nonzero"/></clipPath><clipPath id="d23e2f8a7a"><path d="M 248 220.105469 L 267 220.105469 L 267 241.105469 L 248 241.105469 Z M 248 220.105469 " clip-rule="nonzero"/></clipPath><clipPath id="ed841d7fbe"><path d="M 266 220.105469 L 285 220.105469 L 285 241.105469 L 266 241.105469 Z M 266 220.105469 " clip-rule="nonzero"/></clipPath><clipPath id="58e7819804"><path d="M 283 220.105469 L 301.558594 220.105469 L 301.558594 241.105469 L 283 241.105469 Z M 283 220.105469 " clip-rule="nonzero"/></clipPath><clipPath id="e6ca38244f"><path d="M 48.652344 130.496094 L 67 130.496094 L 67 151.496094 L 48.652344 151.496094 Z M 48.652344 130.496094 " clip-rule="nonzero"/></clipPath><clipPath id="c483489940"><path d="M 65 130.496094 L 84 130.496094 L 84 151.496094 L 65 151.496094 Z M 65 130.496094 " clip-rule="nonzero"/></clipPath><clipPath id="146b9622a5"><path d="M 83 130.496094 L 101 130.496094 L 101 151.496094 L 83 151.496094 Z M 83 130.496094 " clip-rule="nonzero"/></clipPath><clipPath id="523b88af51"><path d="M 100 130.496094 L 118 130.496094 L 118 151.496094 L 100 151.496094 Z M 100 130.496094 " clip-rule="nonzero"/></clipPath><clipPath id="8835eb8b1c"><path d="M 117 130.496094 L 136 130.496094 L 136 151.496094 L 117 151.496094 Z M 117 130.496094 " clip-rule="nonzero"/></clipPath><clipPath id="ceebbb1b01"><path d="M 134 130.496094 L 152.152344 130.496094 L 152.152344 151.496094 L 134 151.496094 Z M 134 130.496094 " clip-rule="nonzero"/></clipPath></defs><g fill="#fc4308" fill-opacity="1"><g transform="translate(74.85881, 203.065616)"><g><path d="M 3.4375 -47.25 L 18.09375 -47.25 C 22.519531 -47.25 26.050781 -46.300781 28.6875 -44.40625 C 31.320312 -42.519531 32.640625 -39.457031 32.640625 -35.21875 C 32.640625 -30.488281 30.675781 -27.109375 26.75 -25.078125 C 33.46875 -23.898438 36.828125 -19.929688 36.828125 -13.171875 C 36.828125 -9.203125 35.453125 -6.015625 32.703125 -3.609375 C 29.953125 -1.203125 26.171875 0 21.359375 0 L 3.4375 0 Z M 14.203125 -28.75 L 15.0625 -28.75 C 17.46875 -28.75 19.257812 -29.164062 20.4375 -30 C 21.625 -30.84375 22.21875 -32.21875 22.21875 -34.125 C 22.21875 -37.332031 19.832031 -38.9375 15.0625 -38.9375 L 14.203125 -38.9375 Z M 14.203125 -8.296875 L 17.578125 -8.296875 C 22.847656 -8.296875 25.484375 -10.054688 25.484375 -13.578125 C 25.484375 -15.671875 24.820312 -17.175781 23.5 -18.09375 C 22.1875 -19.007812 20.210938 -19.46875 17.578125 -19.46875 L 14.203125 -19.46875 Z M 14.203125 -8.296875 "/></g></g></g><g fill="#fc4308" fill-opacity="1"><g transform="translate(112.995369, 203.065616)"><g><path d="M 3.4375 0 L 3.4375 -49.25 L 13.578125 -49.25 L 13.578125 0 Z M 3.4375 0 "/></g></g></g><g fill="#fc4308" fill-opacity="1"><g transform="translate(130.002214, 203.065616)"><g><path d="M 6.203125 -3.484375 C 2.941406 -6.390625 1.3125 -10.113281 1.3125 -14.65625 C 1.3125 -19.195312 3.007812 -22.925781 6.40625 -25.84375 C 9.8125 -28.769531 14.015625 -30.234375 19.015625 -30.234375 C 23.941406 -30.234375 28.09375 -28.765625 31.46875 -25.828125 C 34.84375 -22.890625 36.53125 -19.164062 36.53125 -14.65625 C 36.53125 -10.15625 34.878906 -6.441406 31.578125 -3.515625 C 28.273438 -0.597656 24.085938 0.859375 19.015625 0.859375 C 13.742188 0.859375 9.472656 -0.585938 6.203125 -3.484375 Z M 14.046875 -19.640625 C 12.734375 -18.335938 12.078125 -16.675781 12.078125 -14.65625 C 12.078125 -12.632812 12.707031 -10.984375 13.96875 -9.703125 C 15.226562 -8.421875 16.890625 -7.78125 18.953125 -7.78125 C 20.941406 -7.78125 22.570312 -8.429688 23.84375 -9.734375 C 25.125 -11.035156 25.765625 -12.675781 25.765625 -14.65625 C 25.765625 -16.675781 25.101562 -18.335938 23.78125 -19.640625 C 22.46875 -20.941406 20.859375 -21.59375 18.953125 -21.59375 C 17.003906 -21.59375 15.367188 -20.941406 14.046875 -19.640625 Z M 14.046875 -19.640625 "/></g></g></g><g fill="#fc4308" fill-opacity="1"><g transform="translate(167.852461, 203.065616)"><g><path d="M 2.125 7.21875 L 10.421875 3.15625 C 11.953125 5.664062 14.601562 6.921875 18.375 6.921875 C 20.132812 6.921875 21.769531 6.359375 23.28125 5.234375 C 24.789062 4.109375 25.546875 2.382812 25.546875 0.0625 L 25.546875 -2.125 C 23.742188 -0.132812 20.535156 0.859375 15.921875 0.859375 C 11.679688 0.859375 8.1875 -0.632812 5.4375 -3.625 C 2.6875 -6.625 1.3125 -10.300781 1.3125 -14.65625 C 1.3125 -19.007812 2.6875 -22.691406 5.4375 -25.703125 C 8.1875 -28.722656 11.679688 -30.234375 15.921875 -30.234375 C 19.703125 -30.234375 22.851562 -29.070312 25.375 -26.75 L 25.546875 -26.75 L 25.546875 -29.375 L 35.671875 -29.375 L 35.671875 0.796875 C 35.671875 5.566406 34.085938 9.25 30.921875 11.84375 C 27.753906 14.445312 23.570312 15.75 18.375 15.75 C 9.976562 15.75 4.5625 12.90625 2.125 7.21875 Z M 14.046875 -19.640625 C 12.734375 -18.335938 12.078125 -16.675781 12.078125 -14.65625 C 12.078125 -12.632812 12.707031 -10.984375 13.96875 -9.703125 C 15.226562 -8.421875 16.890625 -7.78125 18.953125 -7.78125 C 20.941406 -7.78125 22.570312 -8.429688 23.84375 -9.734375 C 25.125 -11.035156 25.765625 -12.675781 25.765625 -14.65625 C 25.765625 -16.675781 25.101562 -18.335938 23.78125 -19.640625 C 22.46875 -20.941406 20.859375 -21.59375 18.953125 -21.59375 C 17.003906 -21.59375 15.367188 -20.941406 14.046875 -19.640625 Z M 14.046875 -19.640625 "/></g></g></g><g fill="#fc4308" fill-opacity="1"><g transform="translate(206.962482, 203.065616)"><g><path d="M 9.96875 -12.25 C 11.800781 -12.25 13.351562 -11.609375 14.625 -10.328125 C 15.90625 -9.054688 16.546875 -7.503906 16.546875 -5.671875 C 16.546875 -3.878906 15.90625 -2.34375 14.625 -1.0625 C 13.351562 0.21875 11.800781 0.859375 9.96875 0.859375 C 8.164062 0.859375 6.625 0.21875 5.34375 -1.0625 C 4.070312 -2.34375 3.4375 -3.878906 3.4375 -5.671875 C 3.4375 -7.503906 4.070312 -9.054688 5.34375 -10.328125 C 6.625 -11.609375 8.164062 -12.25 9.96875 -12.25 Z M 9.96875 -12.25 "/></g></g></g><g clip-path="url(#254b1b36f7)"><path fill="#000000" d="M 205.570312 220.140625 L 196.59375 241.070312 L 205.457031 241.070312 L 214.433594 220.140625 Z M 205.570312 220.140625 " fill-opacity="1" fill-rule="nonzero"/></g><g clip-path="url(#3ea6e83627)"><path fill="#000000" d="M 223.015625 220.140625 L 214.035156 241.070312 L 222.898438 241.070312 L 231.875 220.140625 Z M 223.015625 220.140625 " fill-opacity="1" fill-rule="nonzero"/></g><g clip-path="url(#7272dafd06)"><path fill="#000000" d="M 240.457031 220.140625 L 231.480469 241.070312 L 240.339844 241.070312 L 249.316406 220.140625 Z M 240.457031 220.140625 " fill-opacity="1" fill-rule="nonzero"/></g><g clip-path="url(#d23e2f8a7a)"><path fill="#000000" d="M 257.898438 220.140625 L 248.921875 241.070312 L 257.78125 241.070312 L 266.757812 220.140625 Z M 257.898438 220.140625 " fill-opacity="1" fill-rule="nonzero"/></g><g clip-path="url(#ed841d7fbe)"><path fill="#000000" d="M 275.339844 220.140625 L 266.363281 241.070312 L 275.222656 241.070312 L 284.199219 220.140625 Z M 275.339844 220.140625 " fill-opacity="1" fill-rule="nonzero"/></g><g clip-path="url(#58e7819804)"><path fill="#000000" d="M 292.78125 220.140625 L 283.804688 241.070312 L 292.664062 241.070312 L 301.640625 220.140625 Z M 292.78125 220.140625 " fill-opacity="1" fill-rule="nonzero"/></g><g clip-path="url(#e6ca38244f)"><path fill="#000000" d="M 57.535156 130.53125 L 48.6875 151.460938 L 57.421875 151.460938 L 66.269531 130.53125 Z M 57.535156 130.53125 " fill-opacity="1" fill-rule="nonzero"/></g><g clip-path="url(#c483489940)"><path fill="#000000" d="M 74.726562 130.53125 L 65.878906 151.460938 L 74.613281 151.460938 L 83.460938 130.53125 Z M 74.726562 130.53125 " fill-opacity="1" fill-rule="nonzero"/></g><g clip-path="url(#146b9622a5)"><path fill="#000000" d="M 91.921875 130.53125 L 83.070312 151.460938 L 91.804688 151.460938 L 100.652344 130.53125 Z M 91.921875 130.53125 " fill-opacity="1" fill-rule="nonzero"/></g><g clip-path="url(#523b88af51)"><path fill="#000000" d="M 109.113281 130.53125 L 100.265625 151.460938 L 109 151.460938 L 117.847656 130.53125 Z M 109.113281 130.53125 " fill-opacity="1" fill-rule="nonzero"/></g><g clip-path="url(#8835eb8b1c)"><path fill="#000000" d="M 126.304688 130.53125 L 117.457031 151.460938 L 126.191406 151.460938 L 135.039062 130.53125 Z M 126.304688 130.53125 " fill-opacity="1" fill-rule="nonzero"/></g><g clip-path="url(#ceebbb1b01)"><path fill="#000000" d="M 143.5 130.53125 L 134.648438 151.460938 L 143.382812 151.460938 L 152.230469 130.53125 Z M 143.5 130.53125 " fill-opacity="1" fill-rule="nonzero"/></g><g fill="#fc4308" fill-opacity="1"><g transform="translate(230.073021, 210.355196)"><g><path d="M 7.4375 -9.9375 L 7.4375 0 L 1.796875 0 L 1.796875 -24.75 L 7.4375 -24.75 L 7.4375 -14.875 L 15.421875 -14.875 L 15.421875 -24.75 L 21.0625 -24.75 L 21.0625 0 L 15.421875 0 L 15.421875 -9.9375 Z M 7.4375 -9.9375 "/></g></g></g><g fill="#fc4308" fill-opacity="1"><g transform="translate(252.932993, 210.355196)"><g><path d="M 6.8125 -15.390625 L 6.8125 -8.0625 C 6.8125 -6.550781 7.039062 -5.472656 7.5 -4.828125 C 7.957031 -4.191406 8.734375 -3.875 9.828125 -3.875 C 10.929688 -3.875 11.710938 -4.191406 12.171875 -4.828125 C 12.640625 -5.472656 12.875 -6.550781 12.875 -8.0625 L 12.875 -15.390625 L 18.1875 -15.390625 L 18.1875 -6.78125 C 18.1875 -4.21875 17.519531 -2.367188 16.1875 -1.234375 C 14.851562 -0.109375 12.734375 0.453125 9.828125 0.453125 C 6.929688 0.453125 4.816406 -0.109375 3.484375 -1.234375 C 2.160156 -2.367188 1.5 -4.21875 1.5 -6.78125 L 1.5 -15.390625 Z M 6.8125 -15.390625 "/></g></g></g><g fill="#fc4308" fill-opacity="1"><g transform="translate(272.612973, 210.355196)"><g><path d="M 17.640625 -13.46875 C 19.078125 -11.882812 19.796875 -9.953125 19.796875 -7.671875 C 19.796875 -5.398438 19.078125 -3.476562 17.640625 -1.90625 C 16.203125 -0.332031 14.375 0.453125 12.15625 0.453125 C 10.113281 0.453125 8.429688 -0.273438 7.109375 -1.734375 L 7.046875 -1.734375 L 7.046875 0 L 1.796875 0 L 1.796875 -25.796875 L 7.109375 -25.796875 L 7.109375 -13.921875 C 8.429688 -15.203125 10.113281 -15.84375 12.15625 -15.84375 C 14.375 -15.84375 16.203125 -15.050781 17.640625 -13.46875 Z M 13.171875 -5.078125 C 13.828125 -5.753906 14.15625 -6.617188 14.15625 -7.671875 C 14.15625 -8.734375 13.8125 -9.601562 13.125 -10.28125 C 12.4375 -10.96875 11.582031 -11.3125 10.5625 -11.3125 C 9.5625 -11.3125 8.710938 -10.96875 8.015625 -10.28125 C 7.328125 -9.601562 6.984375 -8.738281 6.984375 -7.6875 C 6.984375 -6.644531 7.316406 -5.78125 7.984375 -5.09375 C 8.660156 -4.414062 9.519531 -4.078125 10.5625 -4.078125 C 11.644531 -4.078125 12.515625 -4.410156 13.171875 -5.078125 Z M 13.171875 -5.078125 "/></g></g></g></svg>